VIDEO INFO:

Format                           : Matroska
File size                        : 3.96 GiB
Duration                         : 1h 36mn
Overall bit rate                 : 5 849 Kbps
Movie name                       : BrewsterS.Millions.1985.HDTVRip.x264.720p.3Rus.Eng.-CME-v0
Encoded date                     : UTC 2011-06-21 18:29:31
Writing application              : mkvmerge v4.7.0 ('Just Like You Imagined') gemaakt op Apr 21 2011 01:13:14
Writing library                  : libebml v1.2.0 + libmatroska v1.1.0

Video
ID                               : 1
Format                           : AVC
Format/Info                      : Advanced Video Codec
Format profile                   : High@L4.1
Format settings, CABAC           : Yes
Format settings, ReFrames        : 3 frames
Muxing mode                      : Header stripping
Codec ID                         : V_MPEG4/ISO/AVC
Duration                         : 1h 36mn
Bit rate mode                    : Variable
Bit rate                         : 5 349 Kbps
Maximum bit rate                 : 40.0 Mbps
Width                            : 1 280 pixels
Height                           : 720 pixels
Display aspect ratio             : 16:9
Frame rate                       : 25.000 fps
Color space                      : YUV
Chroma subsampling               : 4:2:0
Bit depth                        : 8 bits
Scan type                        : Progressive
Bits/(Pixel*Frame)               : 0.232
Stream size                      : 3.62 GiB (91%)
Title                            : BrewsterS.Millions.1985.HDTVRip.x264.720p.3Rus.Eng.-CME-v0
Language                         : English

Audio
ID                               : 2
Format                           : AC-3
Format/Info                      : Audio Coding 3
Format profile                   : Dolby Digital
Mode extension                   : CM (complete main)
Muxing mode                      : Header stripping
Codec ID                         : A_AC3
Duration                         : 1h 36mn
Bit rate mode                    : Constant
Bit rate                         : 384 Kbps
Channel(s)                       : 2 channels
Channel positions                : Front: L R
Sampling rate                    : 48.0 KHz
Bit depth                        : 16 bits
Compression mode                 : Lossy
Stream size                      : 266 MiB (7%)
Title                            : English
Language                         : English

_________________

Verenigde Staten
Komedie
97 minuten

geregisseerd door Walter Hill
met Richard Pryor, John Candy en Lonette McKee

Wanneer een rijk familielid van Brewster overlijdt, wordt Brewster getest of hij de waarde van geld weet. Hij moet binnen 30 dagen 30 miljoen dollar uitgeven. Dit lijkt makkelijk, maar hij mag geen aanwinsten doen en hij mag het niet zomaar weggooien. Lukt het hem, dan krijgt hij 300 miljoen dollar. Nog een nadeel is dat hij niemand mag vertellen hoe en waarom, dus iedereen denkt dat hij gek is.

Ondertiteling: Nederlands (.srt, apart bijgevoegd).
